<?xml version="1.0" ?><svg viewBox="0 0 48 48" xmlns="http://www.w3.org/2000/svg" xmlns:xlink="http://www.w3.org/1999/xlink"><defs><style>.cls-1{fill:#99543b;}.cls-2{fill:#fdcf85;}.cls-3{fill:#edbd77;}.cls-4{fill:url(#linear-gradient);}</style><linearGradient gradientUnits="userSpaceOnUse" id="linear-gradient" x1="24" x2="24" y1="29.91" y2="40.65"><stop offset="0" stop-color="#a9db3b"/><stop offset="1" stop-color="#92b93b"/></linearGradient></defs><title/><g id="icons"><g data-name="Layer 3" id="Layer_3"><path class="cls-1" d="M31.9,11.07C30.14,6.33,27.73,4.71,23.38,5s-8.06,2.27-9.56,8.15c-1.56,6.13,1.32,12.47-2.92,19-.66,1,24,0,24,0C32.05,25.75,35.91,21.89,31.9,11.07Z"/><path class="cls-2" d="M34.89,30.59c-4-.74-6.71-2.69-6.71-4.39s.11-6.6.11-6.6l-4.89-.09h0l-4.89.09a61.62,61.62,0,0,1,1,6.73c0,1.7-1.77,3.78-5.6,4.26-3.79.77-5,4.48-5.1,6.81l14.68-.8H39.46C39.3,34.28,37.92,32.16,34.89,30.59Z"/><path class="cls-3" d="M23.5,28.82a7.18,7.18,0,0,0,4.71-2.3,1.73,1.73,0,0,1,0-.32c0-1.71.11-6.6.11-6.6l-4.89-.09h0l-4.89.09a61.62,61.62,0,0,1,1,6.73,2.81,2.81,0,0,1-.1.69A6.92,6.92,0,0,0,23.5,28.82Z"/><path class="cls-2" d="M32.39,16.68a3.07,3.07,0,0,0-1-2.49c.1-1.79.12-4.09-1-5C29.21,5.4,25.25,5.37,22,5.37s-5.48,1.44-6.75,5a9.17,9.17,0,0,0,.12,3.76,3,3,0,0,0-1,2.52c0,1.47.69,2.67,1.54,2.67h0c1.2,5.68,5.26,8.15,7.6,8.15s6.34-2.41,7.5-8.17C31.78,19.21,32.39,18.07,32.39,16.68Z"/><path class="cls-1" d="M31.58,14.13s-.92-.06-1.1,2.2c-.43-2.2-1.56-5.27-2.11-5.55-1.62,3-8.83,7.81-12.94,9.11-2.25-1.07-2.72-13,5.2-14.51C27.88,5.08,31.44,5.48,31.58,14.13Z"/><path class="cls-4" d="M40.19,37.62a.14.14,0,0,0,0-.07c-.7-2-1.81-4.75-2.92-5.85a1.79,1.79,0,0,0-.32-.3c-1.83-.87-6.29-2.42-6.48-2.48-1.41,6-11.23,6.07-12.92.25-.24.13-4.8,1.36-6.63,2.23-1.25.87-2.42,4.14-3.09,6.36a1.34,1.34,0,0,0,.73.58h0c2.44,1.11,5.55,1.22,8.18,1.42h0l2.25.14H29l2.12-.13h0a33,33,0,0,0,7.59-1.16h0c.23-.08.47-.17.69-.27h0C39.92,38.12,40.19,37.87,40.19,37.62Z"/></g></g></svg>