<?xml version="1.0" ?><svg viewBox="0 0 48 48" xmlns="http://www.w3.org/2000/svg" xmlns:xlink="http://www.w3.org/1999/xlink"><defs><style>.cls-1{fill:#fdcf85;}.cls-2{fill:#edbd77;}.cls-3{fill:url(#linear-gradient);}.cls-4{fill:#99543b;}</style><linearGradient gradientUnits="userSpaceOnUse" id="linear-gradient" x1="24" x2="24" y1="29.81" y2="40.55"><stop offset="0" stop-color="#72afe0"/><stop offset="1" stop-color="#4991cc"/></linearGradient></defs><title/><g id="icons"><g data-name="Layer 3" id="Layer_3"><path class="cls-1" d="M34.82,30.49c-4-.74-6.71-2.68-6.71-4.39s.1-6.59.1-6.59l-4.89-.1h-.05l-4.89.1a60.75,60.75,0,0,1,1,6.72c0,1.7-1.78,3.79-5.6,4.26C10,31.26,8.8,35,8.64,37.3l14.68-.8H39.38C39.23,34.18,37.85,32.06,34.82,30.49Z"/><path class="cls-2" d="M23.42,28.73a7.23,7.23,0,0,0,4.72-2.3,1.84,1.84,0,0,1,0-.33c0-1.7.1-6.59.1-6.59l-4.89-.1h-.05l-4.89.1a60.75,60.75,0,0,1,1,6.72,2.74,2.74,0,0,1-.1.69A6.94,6.94,0,0,0,23.42,28.73Z"/><path class="cls-1" d="M32.32,16.58a3.07,3.07,0,0,0-1-2.49c.09-1.78.11-4.09-1-5-1.21-3.79-5.16-3.82-8.41-3.82s-5.48,1.44-6.75,5a9.32,9.32,0,0,0,.11,3.76,3,3,0,0,0-1,2.52c0,1.48.69,2.67,1.54,2.67h0c1.2,5.69,5.27,8.15,7.61,8.15s6.34-2.41,7.49-8.17C31.7,19.11,32.32,18,32.32,16.58Z"/><path class="cls-3" d="M40.19,37.52a.19.19,0,0,0,0-.07c-.7-2-1.81-4.74-2.92-5.85a1.71,1.71,0,0,0-.32-.29c-1.83-.88-6.29-2.42-6.48-2.49-1.41,6-11.23,6.07-12.92.25-.24.13-4.8,1.36-6.63,2.24-1.25.87-2.42,4.13-3.09,6.35a1.34,1.34,0,0,0,.73.58h0c2.44,1.11,5.55,1.23,8.18,1.42h0l2.25.14H29l2.12-.13h0a33.49,33.49,0,0,0,7.59-1.15h0c.23-.08.47-.17.69-.27h0C39.92,38,40.19,37.77,40.19,37.52Z"/><path class="cls-4" d="M21.93,5.27c-3.15,0-5.48,1.44-6.75,5a9.32,9.32,0,0,0,.11,3.76c.46.24.45,1,.61,2.14.18.36.74.15.74.15A16.26,16.26,0,0,1,16.91,14c-.44-1.54-.31-1.95.8-2.44a19.69,19.69,0,0,0,10.75-.51,2,2,0,0,1,.84,2.35,11.58,11.58,0,0,0,.21,3.75c.07.32.39.25.56.14a5.52,5.52,0,0,1,1.27-3.24c.1-1.78.11-4.08-1-5C29.13,5.3,25.18,5.27,21.93,5.27Z"/></g></g></svg>