<?xml version="1.0" ?><svg style="enable-background:new 0 0 48 48;" version="1.1" viewBox="0 0 48 48" xml:space="preserve" xmlns="http://www.w3.org/2000/svg" xmlns:xlink="http://www.w3.org/1999/xlink"><g id="Icons"><g><path d="M21.5063,26.50848l-0.7342,1.4447l-5.5617,1.4641c-2.8233,0.7488-5.0494,2.5406-6.0073,4.8354    l-1.3961,3.3452c0,0,15.5203,5.8072,32.386,0.0268l-1.3962-3.3453c-0.9578-2.2948-3.184-4.0867-6.0073-4.8354l-5.4806-1.4351    l-0.4855-1.5833" style="fill:#1FAA22;"/><path d="M27.3936,28.20858c0,3.8489-6.7361,3.8114-6.7362-0.0324v-1.5963h6.7362V28.20858z" style="fill:#DDBEA8;"/><path d="M17.3725,19.00198l1.8957,2.8894l0.5825-3.8595l-0.621-1.2146l4.7713-0.3299l4.8768-0.2619    l-0.432,1.7277l0.6674,3.9382l1.4776-2.8486c0,0,1.081-3.2414,0.2407-4.8202c-0.8402-1.5787-2.67-2.4538-3.6311-3.3432    c-0.9611-0.8894-3.1326-2.5107-3.1908-3.0662c0,0-1.3885,1.6148-4.0373,3.6345c-2.6488,2.0198-3.0062,2.6341-3.1216,4.1114    C16.7352,17.03638,17.3725,19.00198,17.3725,19.00198z" style="fill:#464747;"/><path d="M18.7876,15.77388l0.2153,1.9536l-0.1701,3.3016l-1.4603-2.0271c0,0-1.1134,0.2464-1.0524,1.8459    c0.0609,1.5995,0.891,2.0838,1.8681,2.1675c0,0,0.7713,2.8656,3.081,4.1997c2.3097,1.3342,5.1973,0.9558,6.5291-0.9028    c1.3318-1.8586,1.8571-3.3007,1.8571-3.3007s1.7773,0.2356,2.0417-1.6898c0.2644-1.9253-1.1063-2.279-1.1063-2.279l-1.4198,2.0691    l-0.1562-3.2853l0.2763-2.0527l-5.2625,0.648L18.7876,15.77388z" style="fill:#F9D9C0;"/></g></g></svg>